# MagicaVoxel @ Ephtracy

# group
o top

# material
mtllib ship-0-top.mtl
usemtl palette

# normals
vn -1 0 0
vn 1 0 0
vn 0 0 1
vn 0 0 -1
vn 0 -1 0
vn 0 1 0

# texcoords
vt 0.958984 0.5
vt 0.990234 0.5

# verts
v -0.6 6.6 0.5
v -0.6 6.6 0.4
v -0.6 6.6 -0.8
v -0.6 6.6 -0.9
v -0.6 7.6 0.4
v -0.6 7.6 -0.8
v -0.6 7.7 0.5
v -0.6 7.7 -0.1
v -0.6 7.7 -0.2
v -0.6 7.7 -0.9
v -0.6 7.9 -0.1
v -0.6 7.9 -0.2
v -0.5 6.6 0.6
v -0.5 6.6 0.5
v -0.5 6.6 -0.9
v -0.5 6.6 -1
v -0.5 7.6 -0.9
v -0.5 7.6 -1
v -0.5 7.7 0.6
v -0.5 7.7 0.5
v -0.5 7.7 -0.9
v -0.5 7.7 -1
v -0.5 7.9 -0.1
v -0.5 7.9 -0.2
v -0.5 8.5 -0.1
v -0.5 8.5 -0.2
v -0.4 8.5 -0.1
v -0.4 8.5 -0.2
v -0.4 8.7 -0.1
v -0.4 8.7 -0.2
v -0.3 6.6 0.7
v -0.3 6.6 0.6
v -0.3 6.6 -1
v -0.3 6.6 -1.1
v -0.3 7.6 0.7
v -0.3 7.6 0.6
v -0.3 7.6 -1
v -0.3 7.6 -1.1
v -0.3 7.7 0.7
v -0.3 7.7 0.6
v -0.3 7.7 0.1
v -0.3 7.7 -0.1
v -0.3 7.7 -0.2
v -0.3 7.7 -0.4
v -0.3 7.7 -1
v -0.3 7.7 -1.1
v -0.3 7.9 0.1
v -0.3 7.9 -5.96046e-08
v -0.3 8.1 0.1
v -0.3 8.1 -5.96046e-08
v -0.3 8.5 -0.1
v -0.3 8.5 -0.2
v -0.3 8.7 0.1
v -0.3 8.7 -0.1
v -0.3 8.7 -0.2
v -0.3 8.7 -0.4
v -0.0999999 7.7 0.4
v -0.0999999 7.7 0.3
v -0.0999999 7.7 0.1
v -0.0999999 7.7 -0.4
v -0.0999999 7.7 -0.7
v -0.0999999 7.9 0.4
v -0.0999999 7.9 0.3
v -0.0999999 7.9 0.2
v -0.0999999 7.9 -0.6
v -0.0999999 7.9 -0.7
v -0.0999999 8.1 0.1
v -0.0999999 8.3 0.2
v -0.0999999 8.3 0.1
v -0.0999999 8.4 0.2
v -0.0999999 8.4 0.1
v -0.0999999 8.5 0.3
v -0.0999999 8.5 0.2
v -0.0999999 8.5 0.1
v -0.0999999 8.5 -0.5
v -0.0999999 8.5 -0.6
v -0.0999999 8.7 0.2
v -0.0999999 8.7 0.1
v -0.0999999 8.7 -0.4
v -0.0999999 8.7 -0.5
v 0.1 7.7 0.4
v 0.1 7.7 0.1
v 0.1 7.7 -0.4
v 0.1 7.7 -0.6
v 0.1 7.7 -0.7
v 0.1 7.9 0.4
v 0.1 7.9 0.3
v 0.1 7.9 -0.5
v 0.1 7.9 -0.6
v 0.1 7.9 -0.7
v 0.1 8 -0.4
v 0.1 8.1 -0.4
v 0.1 8.5 0.3
v 0.1 8.5 0.2
v 0.1 8.5 -0.4
v 0.1 8.5 -0.5
v 0.1 8.5 -0.6
v 0.1 8.7 0.2
v 0.1 8.7 0.1
v 0.1 8.7 -0.4
v 0.1 8.7 -0.5
v 0.3 6.6 0.7
v 0.3 6.6 0.6
v 0.3 6.6 -1
v 0.3 6.6 -1.1
v 0.3 7.6 0.7
v 0.3 7.6 0.6
v 0.3 7.6 -1
v 0.3 7.6 -1.1
v 0.3 7.7 0.7
v 0.3 7.7 0.6
v 0.3 7.7 0.1
v 0.3 7.7 -0.1
v 0.3 7.7 -0.2
v 0.3 7.7 -0.4
v 0.3 7.7 -1
v 0.3 7.7 -1.1
v 0.3 7.9 -0.1
v 0.3 7.9 -0.2
v 0.3 7.9 -0.4
v 0.3 8 -0.2
v 0.3 8 -0.4
v 0.3 8.4 -0.1
v 0.3 8.4 -0.2
v 0.3 8.7 0.1
v 0.3 8.7 -0.1
v 0.3 8.7 -0.2
v 0.3 8.7 -0.4
v 0.4 8.4 -0.1
v 0.4 8.4 -0.2
v 0.4 8.7 -0.1
v 0.4 8.7 -0.2
v 0.5 6.6 0.6
v 0.5 6.6 0.5
v 0.5 6.6 -0.9
v 0.5 6.6 -1
v 0.5 7.6 0.6
v 0.5 7.6 0.5
v 0.5 7.7 0.6
v 0.5 7.7 0.5
v 0.5 7.7 -0.9
v 0.5 7.7 -1
v 0.5 7.9 -0.1
v 0.5 7.9 -0.2
v 0.5 8.4 -0.1
v 0.5 8.4 -0.2
v 0.6 6.6 0.5
v 0.6 6.6 0.4
v 0.6 6.6 -0.8
v 0.6 6.6 -0.9
v 0.6 7.6 0.4
v 0.6 7.6 -0.8
v 0.6 7.7 0.5
v 0.6 7.7 -0.1
v 0.6 7.7 -0.2
v 0.6 7.7 -0.9
v 0.6 7.9 -0.1
v 0.6 7.9 -0.2
v -0.3 6.6 0.7
v -0.3 7.6 0.7
v -0.3 7.7 0.7
v -0.0999999 6.6 0.7
v -0.0999999 7.1 0.7
v 5.96046e-08 6.7 0.7
v 5.96046e-08 7.1 0.7
v 0.1 6.7 0.7
v 0.1 7.1 0.7
v 0.2 6.6 0.7
v 0.2 7.1 0.7
v 0.3 6.6 0.7
v 0.3 7.6 0.7
v 0.3 7.7 0.7
v -0.5 6.6 0.6
v -0.5 7.7 0.6
v -0.3 6.6 0.6
v -0.3 7.6 0.6
v -0.3 7.7 0.6
v 0.3 6.6 0.6
v 0.3 7.6 0.6
v 0.3 7.7 0.6
v 0.5 6.6 0.6
v 0.5 7.6 0.6
v 0.5 7.7 0.6
v -0.6 6.6 0.5
v -0.6 7.7 0.5
v -0.5 6.6 0.5
v -0.5 7.7 0.5
v 0.5 6.6 0.5
v 0.5 7.6 0.5
v 0.5 7.7 0.5
v 0.6 6.6 0.5
v 0.6 7.7 0.5
v -0.0999999 7.7 0.4
v -0.0999999 7.9 0.4
v 5.96046e-08 7.7 0.4
v 5.96046e-08 7.9 0.4
v 0.1 7.7 0.4
v 0.1 7.9 0.4
v -0.0999999 7.9 0.3
v -0.0999999 8.5 0.3
v 5.96046e-08 7.9 0.3
v 5.96046e-08 8.5 0.3
v 0.1 7.9 0.3
v 0.1 8.5 0.3
v -0.0999999 8.5 0.2
v -0.0999999 8.7 0.2
v 5.96046e-08 8.5 0.2
v 5.96046e-08 8.7 0.2
v 0.1 8.5 0.2
v 0.1 8.7 0.2
v -0.3 7.7 0.1
v -0.3 7.9 0.1
v -0.3 8.1 0.1
v -0.3 8.7 0.1
v -0.2 7.9 0.1
v -0.2 8.1 0.1
v -0.2 8.3 0.1
v -0.0999999 7.7 0.1
v -0.0999999 8.1 0.1
v -0.0999999 8.3 0.1
v -0.0999999 8.4 0.1
v -0.0999999 8.5 0.1
v -0.0999999 8.7 0.1
v 0.1 7.7 0.1
v 0.1 8.7 0.1
v 0.3 7.7 0.1
v 0.3 8.7 0.1
v -0.6 7.7 -0.1
v -0.6 7.9 -0.1
v -0.5 7.7 -0.1
v -0.5 7.9 -0.1
v -0.5 8.5 -0.1
v -0.4 7.9 -0.1
v -0.4 8.5 -0.1
v -0.4 8.7 -0.1
v -0.3 7.7 -0.1
v -0.3 8.5 -0.1
v -0.3 8.7 -0.1
v 0.3 7.7 -0.1
v 0.3 7.9 -0.1
v 0.3 8.4 -0.1
v 0.3 8.7 -0.1
v 0.4 7.7 -0.1
v 0.4 7.9 -0.1
v 0.4 8.4 -0.1
v 0.4 8.7 -0.1
v 0.5 7.7 -0.1
v 0.5 7.9 -0.1
v 0.5 8.4 -0.1
v 0.6 7.7 -0.1
v 0.6 7.9 -0.1
v -0.6 7.7 -0.2
v -0.6 7.9 -0.2
v -0.5 7.7 -0.2
v -0.5 7.9 -0.2
v -0.5 8.5 -0.2
v -0.4 7.9 -0.2
v -0.4 8.5 -0.2
v -0.4 8.7 -0.2
v -0.3 7.7 -0.2
v -0.3 8.5 -0.2
v -0.3 8.7 -0.2
v 0.3 7.7 -0.2
v 0.3 7.9 -0.2
v 0.3 8 -0.2
v 0.3 8.4 -0.2
v 0.3 8.7 -0.2
v 0.4 7.7 -0.2
v 0.4 7.9 -0.2
v 0.4 8.4 -0.2
v 0.4 8.7 -0.2
v 0.5 7.7 -0.2
v 0.5 7.9 -0.2
v 0.5 8.4 -0.2
v 0.6 7.7 -0.2
v 0.6 7.9 -0.2
v -0.3 7.7 -0.4
v -0.3 8.7 -0.4
v -0.0999999 7.7 -0.4
v -0.0999999 8.7 -0.4
v 0.1 7.7 -0.4
v 0.1 8 -0.4
v 0.1 8.1 -0.4
v 0.1 8.5 -0.4
v 0.1 8.7 -0.4
v 0.2 7.9 -0.4
v 0.2 8 -0.4
v 0.2 8.1 -0.4
v 0.3 7.7 -0.4
v 0.3 7.9 -0.4
v 0.3 8 -0.4
v 0.3 8.7 -0.4
v -0.0999999 8.5 -0.5
v -0.0999999 8.7 -0.5
v 5.96046e-08 8.5 -0.5
v 5.96046e-08 8.7 -0.5
v 0.1 8.5 -0.5
v 0.1 8.7 -0.5
v -0.0999999 7.9 -0.6
v -0.0999999 8.5 -0.6
v 5.96046e-08 7.9 -0.6
v 5.96046e-08 8.5 -0.6
v 0.1 7.9 -0.6
v 0.1 8.5 -0.6
v -0.0999999 7.7 -0.7
v -0.0999999 7.9 -0.7
v 5.96046e-08 7.7 -0.7
v 5.96046e-08 7.9 -0.7
v 0.1 7.7 -0.7
v 0.1 7.9 -0.7
v -0.6 6.6 -0.9
v -0.6 7.7 -0.9
v -0.5 6.6 -0.9
v -0.5 7.6 -0.9
v -0.5 7.7 -0.9
v 0.5 6.6 -0.9
v 0.5 7.7 -0.9
v 0.6 6.6 -0.9
v 0.6 7.7 -0.9
v -0.5 6.6 -1
v -0.5 7.6 -1
v -0.5 7.7 -1
v -0.3 6.6 -1
v -0.3 7.6 -1
v -0.3 7.7 -1
v 0.3 6.6 -1
v 0.3 7.6 -1
v 0.3 7.7 -1
v 0.5 6.6 -1
v 0.5 7.7 -1
v -0.3 6.6 -1.1
v -0.3 7.6 -1.1
v -0.3 7.7 -1.1
v -0.2 6.6 -1.1
v -0.2 7.1 -1.1
v -0.0999999 6.7 -1.1
v -0.0999999 7.1 -1.1
v 5.96046e-08 6.7 -1.1
v 5.96046e-08 7.1 -1.1
v 0.1 6.6 -1.1
v 0.1 7.1 -1.1
v 0.3 6.6 -1.1
v 0.3 7.6 -1.1
v 0.3 7.7 -1.1
v -0.3 6.6 0.7
v -0.0999999 6.6 0.7
v 0.2 6.6 0.7
v 0.3 6.6 0.7
v -0.5 6.6 0.6
v -0.3 6.6 0.6
v -0.0999999 6.6 0.6
v 0.2 6.6 0.6
v 0.3 6.6 0.6
v 0.5 6.6 0.6
v -0.6 6.6 0.5
v -0.5 6.6 0.5
v 0.5 6.6 0.5
v 0.6 6.6 0.5
v -0.6 6.6 0.4
v -0.5 6.6 0.4
v -0.4 6.6 0.4
v -0.3 6.6 0.4
v 0.5 6.6 0.4
v 0.6 6.6 0.4
v -0.5 6.6 -5.96046e-08
v -0.4 6.6 -5.96046e-08
v -0.6 6.6 -0.8
v -0.5 6.6 -0.8
v 0.5 6.6 -0.8
v 0.6 6.6 -0.8
v -0.6 6.6 -0.9
v -0.5 6.6 -0.9
v 0.3 6.6 -0.9
v 0.5 6.6 -0.9
v 0.6 6.6 -0.9
v -0.5 6.6 -1
v -0.3 6.6 -1
v -0.2 6.6 -1
v 0.1 6.6 -1
v 0.3 6.6 -1
v 0.5 6.6 -1
v -0.3 6.6 -1.1
v -0.2 6.6 -1.1
v 0.1 6.6 -1.1
v 0.3 6.6 -1.1
v -0.3 7.7 0.7
v 0.3 7.7 0.7
v -0.5 7.7 0.6
v -0.3 7.7 0.6
v 0.3 7.7 0.6
v 0.5 7.7 0.6
v -0.6 7.7 0.5
v -0.5 7.7 0.5
v -0.3 7.7 0.5
v 0.3 7.7 0.5
v 0.5 7.7 0.5
v 0.6 7.7 0.5
v -0.0999999 7.7 0.4
v 5.96046e-08 7.7 0.4
v 0.1 7.7 0.4
v -0.0999999 7.7 0.3
v -0.3 7.7 0.1
v -0.0999999 7.7 0.1
v 0.1 7.7 0.1
v 0.3 7.7 0.1
v -0.6 7.7 -0.1
v -0.5 7.7 -0.1
v -0.3 7.7 -0.1
v 0.3 7.7 -0.1
v 0.4 7.7 -0.1
v 0.5 7.7 -0.1
v 0.6 7.7 -0.1
v -0.6 7.7 -0.2
v -0.5 7.7 -0.2
v -0.3 7.7 -0.2
v 0.3 7.7 -0.2
v 0.4 7.7 -0.2
v 0.5 7.7 -0.2
v 0.6 7.7 -0.2
v -0.3 7.7 -0.4
v -0.0999999 7.7 -0.4
v 0.1 7.7 -0.4
v 0.3 7.7 -0.4
v 0.1 7.7 -0.6
v -0.0999999 7.7 -0.7
v 5.96046e-08 7.7 -0.7
v 0.1 7.7 -0.7
v -0.6 7.7 -0.9
v -0.5 7.7 -0.9
v -0.3 7.7 -0.9
v 0.3 7.7 -0.9
v 0.5 7.7 -0.9
v 0.6 7.7 -0.9
v -0.5 7.7 -1
v -0.3 7.7 -1
v 0.3 7.7 -1
v 0.5 7.7 -1
v -0.3 7.7 -1.1
v 0.3 7.7 -1.1
v -0.0999999 7.9 0.4
v 5.96046e-08 7.9 0.4
v 0.1 7.9 0.4
v -0.0999999 7.9 0.3
v 5.96046e-08 7.9 0.3
v 0.1 7.9 0.3
v -0.6 7.9 -0.1
v -0.5 7.9 -0.1
v 0.5 7.9 -0.1
v 0.6 7.9 -0.1
v -0.6 7.9 -0.2
v -0.5 7.9 -0.2
v 0.5 7.9 -0.2
v 0.6 7.9 -0.2
v -0.0999999 7.9 -0.6
v 5.96046e-08 7.9 -0.6
v 0.1 7.9 -0.6
v -0.0999999 7.9 -0.7
v 5.96046e-08 7.9 -0.7
v 0.1 7.9 -0.7
v 0.4 8.4 -0.1
v 0.5 8.4 -0.1
v 0.4 8.4 -0.2
v 0.5 8.4 -0.2
v -0.0999999 8.5 0.3
v 5.96046e-08 8.5 0.3
v 0.1 8.5 0.3
v -0.0999999 8.5 0.2
v 5.96046e-08 8.5 0.2
v 0.1 8.5 0.2
v -0.5 8.5 -0.1
v -0.4 8.5 -0.1
v -0.5 8.5 -0.2
v -0.4 8.5 -0.2
v -0.0999999 8.5 -0.5
v 5.96046e-08 8.5 -0.5
v 0.1 8.5 -0.5
v -0.0999999 8.5 -0.6
v 5.96046e-08 8.5 -0.6
v 0.1 8.5 -0.6
v -0.0999999 8.7 0.2
v 5.96046e-08 8.7 0.2
v 0.1 8.7 0.2
v -0.3 8.7 0.1
v -0.0999999 8.7 0.1
v 5.96046e-08 8.7 0.1
v 0.1 8.7 0.1
v 0.3 8.7 0.1
v -0.0999999 8.7 -5.96046e-08
v 5.96046e-08 8.7 -5.96046e-08
v -0.4 8.7 -0.1
v -0.3 8.7 -0.1
v 5.96046e-08 8.7 -0.1
v 0.1 8.7 -0.1
v 0.3 8.7 -0.1
v 0.4 8.7 -0.1
v -0.4 8.7 -0.2
v -0.3 8.7 -0.2
v 5.96046e-08 8.7 -0.2
v 0.1 8.7 -0.2
v 0.3 8.7 -0.2
v 0.4 8.7 -0.2
v -0.0999999 8.7 -0.3
v 5.96046e-08 8.7 -0.3
v -0.3 8.7 -0.4
v -0.0999999 8.7 -0.4
v 5.96046e-08 8.7 -0.4
v 0.1 8.7 -0.4
v 0.3 8.7 -0.4
v -0.0999999 8.7 -0.5
v 5.96046e-08 8.7 -0.5
v 0.1 8.7 -0.5

# faces
f 5/2/1 2/2/1 1/2/1
f 5/1/1 3/1/1 2/1/1
f 6/2/1 4/2/1 3/2/1
f 6/1/1 3/1/1 5/1/1
f 7/2/1 5/2/1 1/2/1
f 7/2/1 6/2/1 5/2/1
f 8/2/1 6/2/1 7/2/1
f 9/2/1 6/2/1 8/2/1
f 10/2/1 4/2/1 6/2/1
f 10/2/1 6/2/1 9/2/1
f 11/2/1 9/2/1 8/2/1
f 12/2/1 9/2/1 11/2/1
f 17/1/1 16/1/1 15/1/1
f 18/1/1 16/1/1 17/1/1
f 19/2/1 14/2/1 13/2/1
f 20/2/1 14/2/1 19/2/1
f 21/2/1 18/2/1 17/2/1
f 22/2/1 18/2/1 21/2/1
f 25/2/1 24/2/1 23/2/1
f 26/2/1 24/2/1 25/2/1
f 29/2/1 28/2/1 27/2/1
f 30/2/1 28/2/1 29/2/1
f 35/1/1 32/1/1 31/1/1
f 36/1/1 32/1/1 35/1/1
f 37/1/1 34/1/1 33/1/1
f 38/1/1 34/1/1 37/1/1
f 39/2/1 36/2/1 35/2/1
f 40/2/1 36/2/1 39/2/1
f 45/2/1 38/2/1 37/2/1
f 46/2/1 38/2/1 45/2/1
f 47/1/1 42/1/1 41/1/1
f 48/1/1 42/1/1 47/1/1
f 49/2/1 48/2/1 47/2/1
f 50/1/1 42/1/1 48/1/1
f 50/2/1 48/2/1 49/2/1
f 51/1/1 50/1/1 49/1/1
f 51/1/1 42/1/1 50/1/1
f 52/1/1 44/1/1 43/1/1
f 53/1/1 51/1/1 49/1/1
f 54/1/1 51/1/1 53/1/1
f 55/1/1 44/1/1 52/1/1
f 56/1/1 44/1/1 55/1/1
f 62/2/1 58/2/1 57/2/1
f 63/1/1 59/1/1 58/1/1
f 63/2/1 58/2/1 62/2/1
f 64/1/1 59/1/1 63/1/1
f 65/1/1 61/1/1 60/1/1
f 66/1/1 61/1/1 65/1/1
f 67/1/1 59/1/1 64/1/1
f 68/2/1 64/2/1 63/2/1
f 68/1/1 67/1/1 64/1/1
f 69/1/1 67/1/1 68/1/1
f 70/2/1 68/2/1 63/2/1
f 70/2/1 69/2/1 68/2/1
f 71/2/1 69/2/1 70/2/1
f 72/2/1 70/2/1 63/2/1
f 73/1/1 71/1/1 70/1/1
f 73/2/1 70/2/1 72/2/1
f 74/1/1 71/1/1 73/1/1
f 75/1/1 65/1/1 60/1/1
f 76/1/1 65/1/1 75/1/1
f 77/2/1 74/2/1 73/2/1
f 78/2/1 74/2/1 77/2/1
f 79/1/1 75/1/1 60/1/1
f 80/1/1 75/1/1 79/1/1
f 81/1/2 82/1/2 86/1/2
f 86/1/2 82/1/2 87/1/2
f 83/1/2 84/1/2 88/1/2
f 84/2/2 85/2/2 89/2/2
f 88/1/2 84/1/2 89/1/2
f 89/2/2 85/2/2 90/2/2
f 83/1/2 88/1/2 91/1/2
f 91/1/2 88/1/2 92/1/2
f 87/1/2 82/1/2 93/1/2
f 93/1/2 82/1/2 94/1/2
f 92/1/2 88/1/2 95/1/2
f 88/2/2 89/2/2 96/2/2
f 95/1/2 88/1/2 96/1/2
f 96/2/2 89/2/2 97/2/2
f 94/1/2 82/1/2 98/1/2
f 98/1/2 82/1/2 99/1/2
f 95/2/2 96/2/2 100/2/2
f 100/2/2 96/2/2 101/2/2
f 102/1/2 103/1/2 106/1/2
f 106/1/2 103/1/2 107/1/2
f 104/1/2 105/1/2 108/1/2
f 108/1/2 105/1/2 109/1/2
f 106/2/2 107/2/2 110/2/2
f 110/2/2 107/2/2 111/2/2
f 108/2/2 109/2/2 116/2/2
f 116/2/2 109/2/2 117/2/2
f 112/1/2 113/1/2 118/1/2
f 114/1/2 115/1/2 119/1/2
f 119/1/2 115/1/2 120/1/2
f 119/2/2 120/2/2 121/2/2
f 121/2/2 120/2/2 122/2/2
f 112/1/2 118/1/2 123/1/2
f 121/1/2 122/1/2 124/1/2
f 112/1/2 123/1/2 125/1/2
f 125/1/2 123/1/2 126/1/2
f 124/1/2 122/1/2 127/1/2
f 127/1/2 122/1/2 128/1/2
f 129/2/2 130/2/2 131/2/2
f 131/2/2 130/2/2 132/2/2
f 133/1/2 134/1/2 137/1/2
f 137/1/2 134/1/2 138/1/2
f 137/2/2 138/2/2 139/2/2
f 139/2/2 138/2/2 140/2/2
f 135/2/2 136/2/2 141/2/2
f 141/2/2 136/2/2 142/2/2
f 143/2/2 144/2/2 145/2/2
f 145/2/2 144/2/2 146/2/2
f 147/2/2 148/2/2 151/2/2
f 148/1/2 149/1/2 151/1/2
f 149/2/2 150/2/2 152/2/2
f 151/1/2 149/1/2 152/1/2
f 147/2/2 151/2/2 153/2/2
f 151/2/2 152/2/2 153/2/2
f 153/2/2 152/2/2 154/2/2
f 154/2/2 152/2/2 155/2/2
f 152/2/2 150/2/2 156/2/2
f 155/2/2 152/2/2 156/2/2
f 154/2/2 155/2/2 157/2/2
f 157/2/2 155/2/2 158/2/2
f 162/1/3 160/1/3 159/1/3
f 163/1/3 160/1/3 162/1/3
f 164/2/3 163/2/3 162/2/3
f 165/1/3 160/1/3 163/1/3
f 165/2/3 163/2/3 164/2/3
f 166/2/3 164/2/3 162/2/3
f 166/1/3 165/1/3 164/1/3
f 167/1/3 160/1/3 165/1/3
f 167/1/3 165/1/3 166/1/3
f 168/2/3 166/2/3 162/2/3
f 168/2/3 167/2/3 166/2/3
f 169/1/3 160/1/3 167/1/3
f 169/2/3 167/2/3 168/2/3
f 170/1/3 169/1/3 168/1/3
f 171/2/3 161/2/3 160/2/3
f 171/1/3 169/1/3 170/1/3
f 171/1/3 160/1/3 169/1/3
f 172/2/3 161/2/3 171/2/3
f 175/2/3 174/2/3 173/2/3
f 176/2/3 174/2/3 175/2/3
f 177/2/3 174/2/3 176/2/3
f 181/1/3 179/1/3 178/1/3
f 182/2/3 180/2/3 179/2/3
f 182/1/3 179/1/3 181/1/3
f 183/2/3 180/2/3 182/2/3
f 186/2/3 185/2/3 184/2/3
f 187/2/3 185/2/3 186/2/3
f 191/2/3 189/2/3 188/2/3
f 191/2/3 190/2/3 189/2/3
f 192/2/3 190/2/3 191/2/3
f 195/2/3 194/2/3 193/2/3
f 196/2/3 194/2/3 195/2/3
f 197/1/3 196/1/3 195/1/3
f 198/1/3 196/1/3 197/1/3
f 201/2/3 200/2/3 199/2/3
f 202/2/3 200/2/3 201/2/3
f 203/1/3 202/1/3 201/1/3
f 204/1/3 202/1/3 203/1/3
f 207/2/3 206/2/3 205/2/3
f 208/2/3 206/2/3 207/2/3
f 209/1/3 208/1/3 207/1/3
f 210/1/3 208/1/3 209/1/3
f 215/1/3 212/1/3 211/1/3
f 215/2/3 213/2/3 212/2/3
f 216/1/3 214/1/3 213/1/3
f 216/2/3 213/2/3 215/2/3
f 217/1/3 214/1/3 216/1/3
f 218/1/3 215/1/3 211/1/3
f 218/1/3 216/1/3 215/1/3
f 219/2/3 217/2/3 216/2/3
f 219/1/3 216/1/3 218/1/3
f 220/1/3 214/1/3 217/1/3
f 220/2/3 217/2/3 219/2/3
f 221/1/3 214/1/3 220/1/3
f 222/1/3 214/1/3 221/1/3
f 223/1/3 214/1/3 222/1/3
f 226/1/3 225/1/3 224/1/3
f 227/1/3 225/1/3 226/1/3
f 230/2/3 229/2/3 228/2/3
f 231/2/3 229/2/3 230/2/3
f 233/1/3 231/1/3 230/1/3
f 233/2/3 232/2/3 231/2/3
f 234/2/3 232/2/3 233/2/3
f 236/1/3 233/1/3 230/1/3
f 236/1/3 234/1/3 233/1/3
f 237/2/3 235/2/3 234/2/3
f 237/1/3 234/1/3 236/1/3
f 238/2/3 235/2/3 237/2/3
f 243/2/3 240/2/3 239/2/3
f 244/1/3 241/1/3 240/1/3
f 244/2/3 240/2/3 243/2/3
f 245/2/3 242/2/3 241/2/3
f 245/1/3 241/1/3 244/1/3
f 246/2/3 242/2/3 245/2/3
f 247/1/3 244/1/3 243/1/3
f 248/2/3 245/2/3 244/2/3
f 248/1/3 244/1/3 247/1/3
f 249/2/3 245/2/3 248/2/3
f 250/2/3 248/2/3 247/2/3
f 251/2/3 248/2/3 250/2/3
f 252/2/4 253/2/4 254/2/4
f 254/2/4 253/2/4 255/2/4
f 254/1/4 255/1/4 257/1/4
f 255/2/4 256/2/4 257/2/4
f 257/2/4 256/2/4 258/2/4
f 254/1/4 257/1/4 260/1/4
f 257/1/4 258/1/4 260/1/4
f 258/2/4 259/2/4 261/2/4
f 260/1/4 258/1/4 261/1/4
f 261/2/4 259/2/4 262/2/4
f 263/2/4 264/2/4 268/2/4
f 264/1/4 265/1/4 269/1/4
f 268/2/4 264/2/4 269/2/4
f 265/1/4 266/1/4 269/1/4
f 266/2/4 267/2/4 270/2/4
f 269/1/4 266/1/4 270/1/4
f 270/2/4 267/2/4 271/2/4
f 268/1/4 269/1/4 272/1/4
f 269/2/4 270/2/4 273/2/4
f 272/1/4 269/1/4 273/1/4
f 273/2/4 270/2/4 274/2/4
f 272/2/4 273/2/4 275/2/4
f 275/2/4 273/2/4 276/2/4
f 277/1/4 278/1/4 279/1/4
f 279/1/4 278/1/4 280/1/4
f 281/1/4 282/1/4 286/1/4
f 282/2/4 283/2/4 287/2/4
f 286/1/4 282/1/4 287/1/4
f 284/1/4 285/1/4 288/1/4
f 287/2/4 283/2/4 288/2/4
f 283/1/4 284/1/4 288/1/4
f 281/1/4 286/1/4 289/1/4
f 286/2/4 287/2/4 290/2/4
f 289/1/4 286/1/4 290/1/4
f 287/1/4 288/1/4 291/1/4
f 290/2/4 287/2/4 291/2/4
f 288/1/4 285/1/4 292/1/4
f 291/1/4 288/1/4 292/1/4
f 293/1/4 294/1/4 295/1/4
f 295/1/4 294/1/4 296/1/4
f 295/2/4 296/2/4 297/2/4
f 297/2/4 296/2/4 298/2/4
f 299/1/4 300/1/4 301/1/4
f 301/1/4 300/1/4 302/1/4
f 301/2/4 302/2/4 303/2/4
f 303/2/4 302/2/4 304/2/4
f 305/1/4 306/1/4 307/1/4
f 307/1/4 306/1/4 308/1/4
f 307/2/4 308/2/4 309/2/4
f 309/2/4 308/2/4 310/2/4
f 311/2/4 312/2/4 313/2/4
f 313/2/4 312/2/4 314/2/4
f 314/2/4 312/2/4 315/2/4
f 316/2/4 317/2/4 318/2/4
f 318/2/4 317/2/4 319/2/4
f 320/1/4 321/1/4 323/1/4
f 321/2/4 322/2/4 324/2/4
f 323/1/4 321/1/4 324/1/4
f 324/2/4 322/2/4 325/2/4
f 326/2/4 327/2/4 329/2/4
f 327/2/4 328/2/4 329/2/4
f 329/2/4 328/2/4 330/2/4
f 331/1/4 332/1/4 334/1/4
f 334/1/4 332/1/4 335/1/4
f 334/2/4 335/2/4 336/2/4
f 335/1/4 332/1/4 337/1/4
f 336/2/4 335/2/4 337/2/4
f 334/2/4 336/2/4 338/2/4
f 336/1/4 337/1/4 338/1/4
f 337/1/4 332/1/4 339/1/4
f 338/1/4 337/1/4 339/1/4
f 334/2/4 338/2/4 340/2/4
f 338/2/4 339/2/4 340/2/4
f 339/1/4 332/1/4 341/1/4
f 340/2/4 339/2/4 341/2/4
f 340/1/4 341/1/4 342/1/4
f 332/2/4 333/2/4 343/2/4
f 342/1/4 341/1/4 343/1/4
f 341/1/4 332/1/4 343/1/4
f 343/2/4 333/2/4 344/2/4
f 350/1/5 346/1/5 345/1/5
f 351/2/5 347/2/5 346/2/5
f 351/1/5 346/1/5 350/1/5
f 352/1/5 348/1/5 347/1/5
f 352/2/5 347/2/5 351/2/5
f 353/1/5 348/1/5 352/1/5
f 356/2/5 350/2/5 349/2/5
f 357/1/5 351/1/5 350/1/5
f 357/1/5 354/1/5 353/1/5
f 357/1/5 352/1/5 351/1/5
f 357/1/5 353/1/5 352/1/5
f 359/2/5 356/2/5 355/2/5
f 360/2/5 350/2/5 356/2/5
f 360/2/5 356/2/5 359/2/5
f 361/2/5 350/2/5 360/2/5
f 362/1/5 357/1/5 350/1/5
f 362/2/5 350/2/5 361/2/5
f 363/2/5 358/2/5 357/2/5
f 363/1/5 357/1/5 362/1/5
f 364/2/5 358/2/5 363/2/5
f 365/2/5 361/2/5 360/2/5
f 365/1/5 360/1/5 359/1/5
f 366/1/5 362/1/5 361/1/5
f 366/2/5 361/2/5 365/2/5
f 366/1/5 364/1/5 363/1/5
f 366/1/5 363/1/5 362/1/5
f 367/1/5 365/1/5 359/1/5
f 367/1/5 366/1/5 365/1/5
f 368/1/5 366/1/5 367/1/5
f 369/1/5 364/1/5 366/1/5
f 369/1/5 366/1/5 368/1/5
f 370/1/5 364/1/5 369/1/5
f 371/2/5 368/2/5 367/2/5
f 372/1/5 369/1/5 368/1/5
f 372/2/5 368/2/5 371/2/5
f 373/1/5 369/1/5 372/1/5
f 374/2/5 370/2/5 369/2/5
f 374/1/5 369/1/5 373/1/5
f 375/2/5 370/2/5 374/2/5
f 376/1/5 373/1/5 372/1/5
f 377/1/5 373/1/5 376/1/5
f 378/1/5 373/1/5 377/1/5
f 379/1/5 373/1/5 378/1/5
f 380/2/5 374/2/5 373/2/5
f 380/1/5 373/1/5 379/1/5
f 381/2/5 374/2/5 380/2/5
f 382/1/5 378/1/5 377/1/5
f 383/2/5 379/2/5 378/2/5
f 383/1/5 378/1/5 382/1/5
f 384/1/5 380/1/5 379/1/5
f 384/2/5 379/2/5 383/2/5
f 385/1/5 380/1/5 384/1/5
f 386/2/6 387/2/6 389/2/6
f 389/2/6 387/2/6 390/2/6
f 388/2/6 389/2/6 393/2/6
f 389/1/6 390/1/6 394/1/6
f 393/2/6 389/2/6 394/2/6
f 390/2/6 391/2/6 395/2/6
f 394/1/6 390/1/6 395/1/6
f 395/2/6 391/2/6 396/2/6
f 393/1/6 394/1/6 398/1/6
f 394/1/6 395/1/6 398/1/6
f 395/1/6 396/1/6 398/1/6
f 398/1/6 396/1/6 399/1/6
f 399/1/6 396/1/6 400/1/6
f 393/1/6 398/1/6 401/1/6
f 393/1/6 401/1/6 402/1/6
f 402/1/6 401/1/6 403/1/6
f 400/1/6 396/1/6 404/1/6
f 404/1/6 396/1/6 405/1/6
f 392/2/6 393/2/6 406/2/6
f 393/1/6 402/1/6 407/1/6
f 406/2/6 393/2/6 407/2/6
f 407/1/6 402/1/6 408/1/6
f 405/1/6 396/1/6 409/1/6
f 409/1/6 396/1/6 410/1/6
f 396/2/6 397/2/6 411/2/6
f 410/1/6 396/1/6 411/1/6
f 411/2/6 397/2/6 412/2/6
f 414/1/6 415/1/6 420/1/6
f 416/1/6 417/1/6 423/1/6
f 417/1/6 418/1/6 423/1/6
f 422/1/6 423/1/6 424/1/6
f 420/1/6 421/1/6 425/1/6
f 424/1/6 423/1/6 427/1/6
f 413/2/6 414/2/6 428/2/6
f 426/1/6 427/1/6 429/1/6
f 428/2/6 414/2/6 429/2/6
f 425/1/6 426/1/6 429/1/6
f 414/1/6 420/1/6 429/1/6
f 420/1/6 425/1/6 429/1/6
f 429/1/6 427/1/6 430/1/6
f 427/1/6 423/1/6 431/1/6
f 430/1/6 427/1/6 431/1/6
f 423/1/6 418/1/6 431/1/6
f 418/2/6 419/2/6 432/2/6
f 431/1/6 418/1/6 432/1/6
f 432/2/6 419/2/6 433/2/6
f 429/2/6 430/2/6 434/2/6
f 430/1/6 431/1/6 435/1/6
f 434/2/6 430/2/6 435/2/6
f 431/2/6 432/2/6 436/2/6
f 435/1/6 431/1/6 436/1/6
f 436/2/6 432/2/6 437/2/6
f 435/2/6 436/2/6 438/2/6
f 438/2/6 436/2/6 439/2/6
f 440/2/6 441/2/6 443/2/6
f 441/1/6 442/1/6 444/1/6
f 443/2/6 441/2/6 444/2/6
f 444/1/6 442/1/6 445/1/6
f 446/2/6 447/2/6 450/2/6
f 450/2/6 447/2/6 451/2/6
f 448/2/6 449/2/6 452/2/6
f 452/2/6 449/2/6 453/2/6
f 454/1/6 455/1/6 457/1/6
f 455/2/6 456/2/6 458/2/6
f 457/1/6 455/1/6 458/1/6
f 458/2/6 456/2/6 459/2/6
f 460/2/6 461/2/6 462/2/6
f 462/2/6 461/2/6 463/2/6
f 464/2/6 465/2/6 467/2/6
f 465/1/6 466/1/6 468/1/6
f 467/2/6 465/2/6 468/2/6
f 468/1/6 466/1/6 469/1/6
f 470/2/6 471/2/6 472/2/6
f 472/2/6 471/2/6 473/2/6
f 474/1/6 475/1/6 477/1/6
f 475/2/6 476/2/6 478/2/6
f 477/1/6 475/1/6 478/1/6
f 478/2/6 476/2/6 479/2/6
f 480/2/6 481/2/6 484/2/6
f 481/1/6 482/1/6 485/1/6
f 484/2/6 481/2/6 485/2/6
f 485/1/6 482/1/6 486/1/6
f 483/1/6 484/1/6 488/1/6
f 486/1/6 487/1/6 488/1/6
f 485/1/6 486/1/6 488/1/6
f 484/1/6 485/1/6 488/1/6
f 488/1/6 487/1/6 489/1/6
f 483/1/6 488/1/6 491/1/6
f 489/1/6 487/1/6 492/1/6
f 488/2/6 489/2/6 492/2/6
f 492/1/6 487/1/6 493/1/6
f 493/1/6 487/1/6 494/1/6
f 490/2/6 491/2/6 496/2/6
f 491/1/6 488/1/6 497/1/6
f 496/2/6 491/2/6 497/2/6
f 488/2/6 492/2/6 498/2/6
f 492/2/6 493/2/6 498/2/6
f 493/1/6 494/1/6 499/1/6
f 498/2/6 493/2/6 499/2/6
f 494/2/6 495/2/6 500/2/6
f 499/1/6 494/1/6 500/1/6
f 500/2/6 495/2/6 501/2/6
f 497/1/6 488/1/6 502/1/6
f 488/2/6 498/2/6 502/2/6
f 498/1/6 499/1/6 503/1/6
f 502/2/6 498/2/6 503/2/6
f 499/1/6 500/1/6 503/1/6
f 497/1/6 502/1/6 504/1/6
f 502/1/6 503/1/6 504/1/6
f 504/1/6 503/1/6 505/1/6
f 503/1/6 500/1/6 506/1/6
f 505/1/6 503/1/6 506/1/6
f 506/1/6 500/1/6 507/1/6
f 507/1/6 500/1/6 508/1/6
f 505/1/6 506/1/6 509/1/6
f 506/2/6 507/2/6 510/2/6
f 509/1/6 506/1/6 510/1/6
f 510/2/6 507/2/6 511/2/6
